<?xml version="1.0" encoding="UTF-8"?>
<svg xmlns="http://www.w3.org/2000/svg" xmlns:xlink="http://www.w3.org/1999/xlink" width="256px" height="256px" viewBox="0 0 256 256" version="1.1">
<g id="surface1">
<path style=" stroke:none;fill-rule:nonzero;fill:rgb(100%,100%,100%);fill-opacity:1;" d="M 106.335938 99.839844 L 106.335938 100.960938 L 86 100.960938 L 86 99.9375 C 86 80.527344 100.0625 61.503906 128.191406 61.503906 C 153.503906 61.503906 170 76.6875 170 96.945312 C 170 112.976562 160.398438 123.617188 149.40625 135.824219 L 147.871094 137.535156 L 116.289062 173.054688 L 116.289062 174.289062 L 172.257812 174.289062 L 172.257812 192 L 86.753906 192 L 86.753906 178.6875 L 134.273438 126 C 141.214844 118.398438 148.71875 109.871094 148.71875 98.71875 C 148.71875 86.816406 139.808594 78.945312 127.710938 78.945312 C 114.222656 78.945312 106.335938 88.785156 106.335938 99.839844 "/>
</g>
</svg>
