<?xml version="1.0" encoding="UTF-8"?>
<svg xmlns="http://www.w3.org/2000/svg" xmlns:xlink="http://www.w3.org/1999/xlink" width="256px" height="256px" viewBox="0 0 256 256" version="1.1">
<g id="surface1">
<path style=" stroke:none;fill-rule:nonzero;fill:rgb(100%,100%,100%);fill-opacity:1;" d="M 126.6875 134.625 L 112.625 134.625 L 112.625 117.472656 L 126.03125 117.472656 C 138.511719 117.472656 147.601562 109.121094 147.503906 97.679688 C 147.503906 86.335938 138.496094 78.558594 125.9375 78.558594 C 113.296875 78.558594 104.945312 86.527344 104.367188 95.441406 L 84.398438 95.441406 C 84.976562 77.246094 99.601562 61.601562 126.398438 61.503906 C 151.902344 61.3125 168.128906 75.664062 168.59375 94.496094 C 168.960938 112.6875 154.433594 122.910156 144.878906 124.496094 L 144.878906 125.617188 C 156.128906 126.734375 172.238281 135.855469 172.625 156.289062 C 173.007812 179.632812 152.191406 194.625 125.742188 194.625 C 98.464844 194.625 82.433594 179.152344 81.679688 160.320312 L 101.28125 160.320312 C 102.222656 169.871094 112.160156 177.28125 125.9375 177.375 C 141.503906 177.472656 151.535156 168.367188 151.34375 155.710938 C 151.246094 143.246094 141.40625 134.625 126.6875 134.625 "/>
</g>
</svg>
