<?xml version="1.0" encoding="UTF-8"?>
<svg xmlns="http://www.w3.org/2000/svg" xmlns:xlink="http://www.w3.org/1999/xlink" width="256px" height="256px" viewBox="0 0 256 256" version="1.1">
<g id="surface1">
<path style=" stroke:none;fill-rule:nonzero;fill:rgb(100%,100%,100%);fill-opacity:1;" d="M 127.902344 194.527344 C 102.785156 194.527344 85.441406 180.097656 84.398438 160.6875 L 104.191406 160.6875 C 106.433594 172.207031 117.503906 177.183594 128.65625 177.183594 C 141.3125 177.183594 153.777344 167.632812 153.777344 150.289062 C 153.777344 134.816406 142.0625 125.167969 128.464844 125.167969 C 116.191406 125.167969 108.59375 132.367188 105.503906 138.097656 L 87.121094 138.097656 L 92.65625 64 L 167.9375 64 L 167.9375 81.648438 L 110 81.648438 L 106.910156 119.136719 L 107.9375 119.136719 C 110.65625 115.007812 119.375 108.257812 133.710938 108.257812 C 155.839844 108.257812 174.6875 123.359375 174.6875 149.617188 C 174.6875 176.609375 155.742188 194.511719 127.902344 194.511719 Z M 127.902344 194.527344 "/>
</g>
</svg>
