<?xml version="1.0" encoding="UTF-8"?>
<svg xmlns="http://www.w3.org/2000/svg" xmlns:xlink="http://www.w3.org/1999/xlink" width="256px" height="256px" viewBox="0 0 256 256" version="1.1">
<g id="surface1">
<path style=" stroke:none;fill-rule:nonzero;fill:rgb(100%,100%,100%);fill-opacity:1;" d="M 131.359375 61.679688 C 157.152344 61.679688 171.601562 77.519531 172.527344 92.0625 L 151.902344 92.0625 C 150.304688 86.335938 143.742188 79.023438 130.910156 79.023438 C 113.664062 79.023438 101.839844 96.464844 102.03125 127.601562 L 103.34375 127.601562 C 107.007812 118.878906 117.023438 109.121094 135.023438 109.121094 C 155.089844 109.121094 175.152344 123.199219 175.152344 150 C 175.152344 178.320312 155.664062 194.527344 129.601562 194.527344 C 114.6875 194.527344 100.160156 189.28125 91.054688 174.464844 C 85.152344 164.816406 81.503906 151.121094 81.503906 132.191406 C 81.503906 84 101.472656 61.679688 131.375 61.679688 Z M 131.359375 61.679688 "/>
<path style=" stroke:none;fill-rule:nonzero;fill:rgb(0%,0%,0%);fill-opacity:1;" d="M 129.777344 125.808594 C 115.054688 125.808594 104.753906 136.207031 104.753906 151.023438 C 104.753906 167.535156 116 177.183594 129.679688 177.183594 C 143.566406 177.183594 154.527344 168.65625 154.527344 151.121094 C 154.527344 134.160156 142.625 125.808594 129.777344 125.808594 "/>
</g>
</svg>
