<?xml version="1.0" encoding="UTF-8"?>
<svg xmlns="http://www.w3.org/2000/svg" xmlns:xlink="http://www.w3.org/1999/xlink" width="256px" height="256px" viewBox="0 0 256 256" version="1.1">
<g id="surface1">
<path style=" stroke:none;fill-rule:nonzero;fill:rgb(100%,100%,100%);fill-opacity:1;" d="M 175.519531 156.847656 C 175.519531 179.152344 156.03125 194.527344 127.710938 194.527344 C 99.503906 194.527344 80.464844 179.246094 80.464844 157.023438 C 80.464844 136.6875 95.664062 127.40625 106.816406 124.976562 L 106.816406 123.9375 C 96.878906 120.847656 85.535156 112.128906 85.535156 95.441406 C 85.535156 75.839844 102.976562 61.503906 128.097656 61.503906 C 153.214844 61.503906 170.558594 75.839844 170.558594 95.425781 C 170.558594 112.398438 158.753906 120.945312 149.183594 123.9375 L 149.183594 124.976562 C 160.433594 127.40625 175.535156 136.878906 175.535156 156.847656 Z M 175.519531 156.847656 "/>
<path style=" stroke:none;fill-rule:nonzero;fill:rgb(0%,0%,0%);fill-opacity:1;" d="M 105.96875 97.503906 C 105.96875 109.3125 115.34375 117.566406 128.097656 117.566406 C 140.847656 117.566406 150.128906 109.3125 150.128906 97.503906 C 150.128906 85.777344 140.847656 77.824219 128.097656 77.824219 C 115.34375 77.824219 105.96875 85.777344 105.96875 97.503906 M 101.472656 155.808594 C 101.472656 169.214844 112.992188 178.398438 128.097656 178.398438 C 143.183594 178.398438 154.625 169.214844 154.625 155.808594 C 154.625 142.320312 143.183594 133.023438 128.097656 133.023438 C 112.992188 133.023438 101.472656 142.304688 101.472656 155.808594 "/>
</g>
</svg>
