<?xml version="1.0" encoding="UTF-8"?>
<svg xmlns="http://www.w3.org/2000/svg" xmlns:xlink="http://www.w3.org/1999/xlink" width="256px" height="256px" viewBox="0 0 256 256" version="1.1">
<g id="surface1">
<path style=" stroke:none;fill-rule:nonzero;fill:rgb(100%,100%,100%);fill-opacity:1;" d="M 124.433594 194.335938 C 98.945312 194.335938 85.632812 180.097656 84.113281 165.566406 L 104.847656 165.566406 C 106.449219 171.28125 113.472656 177.089844 124.816406 177.089844 C 146.574219 177.089844 154.894531 155.441406 154.160156 128.71875 L 152.945312 128.71875 C 149.183594 138.753906 138.976562 147.664062 122 147.664062 C 99.679688 147.664062 80.945312 132.289062 80.945312 105.007812 C 80.945312 77.632812 100.816406 61.3125 126.863281 61.3125 C 151.054688 61.3125 174.398438 75.183594 174.398438 125.535156 C 174.398438 170.910156 158.078125 194.335938 124.433594 194.335938 "/>
<path style=" stroke:none;fill-rule:nonzero;fill:rgb(0%,0%,0%);fill-opacity:1;" d="M 126.320312 130.785156 C 139.246094 130.785156 150.878906 122.335938 150.878906 105.28125 C 150.878906 88.222656 140.191406 78.464844 125.921875 78.464844 C 112.511719 78.464844 101.648438 88.320312 101.648438 105.007812 C 101.648438 122.160156 112.976562 130.769531 126.289062 130.769531 Z M 126.320312 130.785156 "/>
</g>
</svg>
