<?xml version="1.0" encoding="UTF-8"?>
<svg xmlns="http://www.w3.org/2000/svg" xmlns:xlink="http://www.w3.org/1999/xlink" width="256px" height="256px" viewBox="0 0 256 256" version="1.1">
<g id="surface1">
<path style=" stroke:none;fill-rule:nonzero;fill:rgb(0%,0%,0%);fill-opacity:1;" d="M 32 0 C 14.328125 0 0 14.328125 0 32 L 0 224 C 0 241.671875 14.328125 256 32 256 L 224 256 C 241.671875 256 256 241.671875 256 224 L 256 32 C 256 14.328125 241.671875 0 224 0 Z M 136 72 L 136 164.6875 L 170.335938 130.335938 C 173.464844 127.207031 178.535156 127.207031 181.664062 130.335938 C 184.792969 133.464844 184.792969 138.535156 181.664062 141.664062 L 133.664062 189.664062 C 132.164062 191.167969 130.125 192.015625 128 192.015625 C 125.875 192.015625 123.835938 191.167969 122.335938 189.664062 L 74.335938 141.664062 C 71.207031 138.535156 71.207031 133.464844 74.335938 130.335938 C 77.464844 127.207031 82.535156 127.207031 85.664062 130.335938 L 120 164.6875 L 120 72 C 120 67.582031 123.582031 64 128 64 C 132.417969 64 136 67.582031 136 72 "/>
</g>
</svg>
