<?xml version="1.0" encoding="UTF-8"?>
<svg xmlns="http://www.w3.org/2000/svg" xmlns:xlink="http://www.w3.org/1999/xlink" width="256px" height="256px" viewBox="0 0 256 256" version="1.1">
<g id="surface1">
<path style=" stroke:none;fill-rule:nonzero;fill:rgb(0%,0%,0%);fill-opacity:1;" d="M 32 256 C 14.328125 256 0 241.671875 0 224 L 0 32 C 0 14.328125 14.328125 0 32 0 L 224 0 C 241.671875 0 256 14.328125 256 32 L 256 224 C 256 241.671875 241.671875 256 224 256 Z M 136 184 L 136 91.3125 L 170.335938 125.664062 C 173.464844 128.792969 178.535156 128.792969 181.664062 125.664062 C 184.792969 122.535156 184.792969 117.464844 181.664062 114.335938 L 133.664062 66.335938 C 132.164062 64.832031 130.125 63.984375 128 63.984375 C 125.875 63.984375 123.835938 64.832031 122.335938 66.335938 L 74.335938 114.335938 C 71.207031 117.464844 71.207031 122.535156 74.335938 125.664062 C 77.464844 128.792969 82.535156 128.792969 85.664062 125.664062 L 120 91.3125 L 120 184 C 120 188.417969 123.582031 192 128 192 C 132.417969 192 136 188.417969 136 184 "/>
</g>
</svg>
