<?xml version="1.0" encoding="UTF-8"?>
<svg xmlns="http://www.w3.org/2000/svg" xmlns:xlink="http://www.w3.org/1999/xlink" width="256px" height="256px" viewBox="0 0 256 256" version="1.1">
<g id="surface1">
<path style=" stroke:none;fill-rule:evenodd;fill:rgb(0%,0%,0%);fill-opacity:1;" d="M 16 184 C 16 188.417969 19.582031 192 24 192 L 212.6875 192 L 162.335938 242.335938 C 159.207031 245.464844 159.207031 250.535156 162.335938 253.664062 C 165.464844 256.792969 170.535156 256.792969 173.664062 253.664062 L 237.664062 189.664062 C 239.167969 188.164062 240.015625 186.125 240.015625 184 C 240.015625 181.875 239.167969 179.835938 237.664062 178.335938 L 173.664062 114.335938 C 170.535156 111.207031 165.464844 111.207031 162.335938 114.335938 C 159.207031 117.464844 159.207031 122.535156 162.335938 125.664062 L 212.6875 176 L 24 176 C 19.582031 176 16 179.582031 16 184 M 240 72 C 240 76.417969 236.417969 80 232 80 L 43.3125 80 L 93.664062 130.335938 C 96.792969 133.464844 96.792969 138.535156 93.664062 141.664062 C 90.535156 144.792969 85.464844 144.792969 82.335938 141.664062 L 18.335938 77.664062 C 16.832031 76.164062 15.984375 74.125 15.984375 72 C 15.984375 69.875 16.832031 67.835938 18.335938 66.335938 L 82.335938 2.335938 C 85.464844 -0.792969 90.535156 -0.792969 93.664062 2.335938 C 96.792969 5.464844 96.792969 10.535156 93.664062 13.664062 L 43.3125 64 L 232 64 C 236.417969 64 240 67.582031 240 72 "/>
</g>
</svg>
