<?xml version="1.0" encoding="UTF-8"?>
<svg xmlns="http://www.w3.org/2000/svg" xmlns:xlink="http://www.w3.org/1999/xlink" width="256px" height="256px" viewBox="0 0 256 256" version="1.1">
<g id="surface1">
<path style=" stroke:none;fill-rule:nonzero;fill:rgb(0%,0%,0%);fill-opacity:1;" d="M 0 224 C 0 241.671875 14.328125 256 32 256 L 224 256 C 241.671875 256 256 241.671875 256 224 L 256 32 C 256 14.328125 241.671875 0 224 0 L 32 0 C 14.328125 0 0 14.328125 0 32 Z M 72 120 L 164.6875 120 L 130.335938 85.664062 C 127.207031 82.535156 127.207031 77.464844 130.335938 74.335938 C 133.464844 71.207031 138.535156 71.207031 141.664062 74.335938 L 189.664062 122.335938 C 191.167969 123.835938 192.015625 125.875 192.015625 128 C 192.015625 130.125 191.167969 132.164062 189.664062 133.664062 L 141.664062 181.664062 C 138.535156 184.792969 133.464844 184.792969 130.335938 181.664062 C 127.207031 178.535156 127.207031 173.464844 130.335938 170.335938 L 164.6875 136 L 72 136 C 67.582031 136 64 132.417969 64 128 C 64 123.582031 67.582031 120 72 120 "/>
</g>
</svg>
