<?xml version="1.0" encoding="UTF-8"?>
<svg xmlns="http://www.w3.org/2000/svg" xmlns:xlink="http://www.w3.org/1999/xlink" width="256px" height="256px" viewBox="0 0 256 256" version="1.1">
<g id="surface1">
<path style=" stroke:none;fill-rule:evenodd;fill:rgb(0%,0%,0%);fill-opacity:1;" d="M 122.335938 2.335938 C 123.835938 0.832031 125.875 -0.015625 128 -0.015625 C 130.125 -0.015625 132.164062 0.832031 133.664062 2.335938 L 165.664062 34.335938 C 168.792969 37.464844 168.792969 42.535156 165.664062 45.664062 C 162.535156 48.792969 157.464844 48.792969 154.335938 45.664062 L 136 27.3125 L 136 88 C 136 92.417969 132.417969 96 128 96 C 123.582031 96 120 92.417969 120 88 L 120 27.3125 L 101.664062 45.664062 C 98.535156 48.792969 93.464844 48.792969 90.335938 45.664062 C 87.207031 42.535156 87.207031 37.464844 90.335938 34.335938 Z M 128 160 C 132.417969 160 136 163.582031 136 168 L 136 228.6875 L 154.335938 210.335938 C 157.464844 207.207031 162.535156 207.207031 165.664062 210.335938 C 168.792969 213.464844 168.792969 218.535156 165.664062 221.664062 L 133.664062 253.664062 C 132.164062 255.167969 130.125 256.015625 128 256.015625 C 125.875 256.015625 123.835938 255.167969 122.335938 253.664062 L 90.335938 221.664062 C 87.207031 218.535156 87.207031 213.464844 90.335938 210.335938 C 93.464844 207.207031 98.535156 207.207031 101.664062 210.335938 L 120 228.6875 L 120 168 C 120 163.582031 123.582031 160 128 160 M 2.335938 133.664062 C 0.832031 132.164062 -0.015625 130.125 -0.015625 128 C -0.015625 125.875 0.832031 123.835938 2.335938 122.335938 L 34.335938 90.335938 C 37.464844 87.207031 42.535156 87.207031 45.664062 90.335938 C 48.792969 93.464844 48.792969 98.535156 45.664062 101.664062 L 27.3125 120 L 88 120 C 92.417969 120 96 123.582031 96 128 C 96 132.417969 92.417969 136 88 136 L 27.3125 136 L 45.664062 154.335938 C 48.792969 157.464844 48.792969 162.535156 45.664062 165.664062 C 42.535156 168.792969 37.464844 168.792969 34.335938 165.664062 Z M 160 128 C 160 123.582031 163.582031 120 168 120 L 228.6875 120 L 210.335938 101.664062 C 207.207031 98.535156 207.207031 93.464844 210.335938 90.335938 C 213.464844 87.207031 218.535156 87.207031 221.664062 90.335938 L 253.664062 122.335938 C 255.167969 123.835938 256.015625 125.875 256.015625 128 C 256.015625 130.125 255.167969 132.164062 253.664062 133.664062 L 221.664062 165.664062 C 218.535156 168.792969 213.464844 168.792969 210.335938 165.664062 C 207.207031 162.535156 207.207031 157.464844 210.335938 154.335938 L 228.6875 136 L 168 136 C 163.582031 136 160 132.417969 160 128 "/>
</g>
</svg>
