<?xml version="1.0" encoding="UTF-8"?>
<svg xmlns="http://www.w3.org/2000/svg" xmlns:xlink="http://www.w3.org/1999/xlink" width="256px" height="256px" viewBox="0 0 256 256" version="1.1">
<g id="surface1">
<path style=" stroke:none;fill-rule:nonzero;fill:rgb(0%,0%,0%);fill-opacity:1;" d="M 256 224 C 256 241.671875 241.671875 256 224 256 L 32 256 C 14.328125 256 0 241.671875 0 224 L 0 32 C 0 14.328125 14.328125 0 32 0 L 224 0 C 241.671875 0 256 14.328125 256 32 Z M 184 120 L 91.3125 120 L 125.664062 85.664062 C 128.792969 82.535156 128.792969 77.464844 125.664062 74.335938 C 122.535156 71.207031 117.464844 71.207031 114.335938 74.335938 L 66.335938 122.335938 C 64.832031 123.835938 63.984375 125.875 63.984375 128 C 63.984375 130.125 64.832031 132.164062 66.335938 133.664062 L 114.335938 181.664062 C 117.464844 184.792969 122.535156 184.792969 125.664062 181.664062 C 128.792969 178.535156 128.792969 173.464844 125.664062 170.335938 L 91.3125 136 L 184 136 C 188.417969 136 192 132.417969 192 128 C 192 123.582031 188.417969 120 184 120 "/>
</g>
</svg>
