<?xml version="1.0" encoding="UTF-8"?>
<svg xmlns="http://www.w3.org/2000/svg" xmlns:xlink="http://www.w3.org/1999/xlink" width="256px" height="256px" viewBox="0 0 256 256" version="1.1">
<g id="surface1">
<path style=" stroke:none;fill-rule:nonzero;fill:rgb(0%,0%,0%);fill-opacity:1;" d="M 18.574219 128 C 18.574219 188.4375 67.566406 237.433594 128.003906 237.441406 C 188.441406 237.445312 237.445312 188.460938 237.457031 128.019531 C 237.46875 67.582031 188.484375 18.578125 128.046875 18.558594 C 122.921875 18.558594 118.769531 14.40625 118.769531 9.28125 C 118.769531 4.15625 122.921875 0 128.046875 0 C 187.015625 0.015625 238.34375 40.320312 252.347656 97.601562 C 266.351562 154.882812 239.410156 214.320312 187.101562 241.542969 C 134.792969 268.765625 70.65625 256.730469 31.773438 212.394531 C -7.105469 168.0625 -10.667969 102.898438 23.152344 54.59375 L 12.542969 45.359375 C 9.960938 43.117188 8.824219 39.632812 9.585938 36.296875 C 10.34375 32.960938 12.878906 30.3125 16.175781 29.40625 L 56.496094 18.367188 C 59.488281 17.550781 62.6875 18.285156 65.027344 20.316406 C 67.367188 22.351562 68.535156 25.421875 68.144531 28.496094 L 62.832031 69.96875 C 62.398438 73.363281 60.128906 76.246094 56.929688 77.464844 C 53.730469 78.679688 50.117188 78.039062 47.535156 75.792969 L 37.246094 66.832031 C 25.03125 84.886719 18.519531 106.199219 18.558594 128 Z M 18.574219 128 "/>
<path style=" stroke:none;fill-rule:nonzero;fill:rgb(0%,0%,0%);fill-opacity:1;" d="M 106.257812 186.734375 L 106.257812 141.488281 L 131.375 141.488281 L 155.34375 186.734375 L 176.367188 186.734375 L 150.03125 138.640625 C 164.382812 133.839844 172.863281 120.945312 172.863281 105.039062 C 172.863281 83.121094 157.777344 69.105469 133.566406 69.105469 L 88 69.105469 L 88 186.734375 Z M 106.257812 126.734375 L 106.257812 84.433594 L 131.375 84.433594 C 145.472656 84.433594 154.03125 92.414062 154.03125 105.550781 C 154.03125 118.992188 145.96875 126.734375 131.855469 126.734375 Z M 106.257812 126.734375 "/>
</g>
</svg>
