<?xml version="1.0" encoding="UTF-8"?>
<svg xmlns="http://www.w3.org/2000/svg" xmlns:xlink="http://www.w3.org/1999/xlink" width="256px" height="256px" viewBox="0 0 256 256" version="1.1">
<g id="surface1">
<path style=" stroke:none;fill-rule:evenodd;fill:rgb(0%,0%,0%);fill-opacity:1;" d="M 56 96 C 51.582031 96 48 99.582031 48 104 L 48 232 C 48 236.417969 51.582031 240 56 240 L 200 240 C 204.417969 240 208 236.417969 208 232 L 208 104 C 208 99.582031 204.417969 96 200 96 L 168 96 C 163.582031 96 160 92.417969 160 88 C 160 83.582031 163.582031 80 168 80 L 200 80 C 213.253906 80 224 90.746094 224 104 L 224 232 C 224 245.253906 213.253906 256 200 256 L 56 256 C 42.746094 256 32 245.253906 32 232 L 32 104 C 32 90.746094 42.746094 80 56 80 L 88 80 C 92.417969 80 96 83.582031 96 88 C 96 92.417969 92.417969 96 88 96 Z M 56 96 "/>
<path style=" stroke:none;fill-rule:evenodd;fill:rgb(0%,0%,0%);fill-opacity:1;" d="M 122.335938 2.335938 C 123.835938 0.832031 125.875 -0.015625 128 -0.015625 C 130.125 -0.015625 132.164062 0.832031 133.664062 2.335938 L 181.664062 50.335938 C 184.792969 53.464844 184.792969 58.535156 181.664062 61.664062 C 178.535156 64.792969 173.464844 64.792969 170.335938 61.664062 L 136 27.3125 L 136 168 C 136 172.417969 132.417969 176 128 176 C 123.582031 176 120 172.417969 120 168 L 120 27.3125 L 85.664062 61.664062 C 82.535156 64.792969 77.464844 64.792969 74.335938 61.664062 C 71.207031 58.535156 71.207031 53.464844 74.335938 50.335938 Z M 122.335938 2.335938 "/>
</g>
</svg>
