<?xml version="1.0" encoding="UTF-8"?>
<svg xmlns="http://www.w3.org/2000/svg" xmlns:xlink="http://www.w3.org/1999/xlink" width="256px" height="256px" viewBox="0 0 256 256" version="1.1">
<g id="surface1">
<path style=" stroke:none;fill-rule:evenodd;fill:rgb(0%,0%,0%);fill-opacity:1;" d="M 189.664062 58.335938 C 191.167969 59.835938 192.015625 61.875 192.015625 64 C 192.015625 66.125 191.167969 68.164062 189.664062 69.664062 L 131.3125 128 L 189.664062 186.335938 C 192.792969 189.464844 192.792969 194.535156 189.664062 197.664062 C 186.535156 200.792969 181.464844 200.792969 178.335938 197.664062 L 114.335938 133.664062 C 112.832031 132.164062 111.984375 130.125 111.984375 128 C 111.984375 125.875 112.832031 123.835938 114.335938 122.335938 L 178.335938 58.335938 C 179.835938 56.832031 181.875 55.984375 184 55.984375 C 186.125 55.984375 188.164062 56.832031 189.664062 58.335938 M 72 16 C 67.582031 16 64 19.582031 64 24 L 64 232 C 64 236.417969 67.582031 240 72 240 C 76.417969 240 80 236.417969 80 232 L 80 24 C 80 19.582031 76.417969 16 72 16 "/>
</g>
</svg>
