<?xml version="1.0" encoding="UTF-8"?>
<svg xmlns="http://www.w3.org/2000/svg" xmlns:xlink="http://www.w3.org/1999/xlink" width="256px" height="256px" viewBox="0 0 256 256" version="1.1">
<g id="surface1">
<path style=" stroke:none;fill-rule:evenodd;fill:rgb(0%,0%,0%);fill-opacity:1;" d="M 66.335938 58.335938 C 64.832031 59.835938 63.984375 61.875 63.984375 64 C 63.984375 66.125 64.832031 68.164062 66.335938 69.664062 L 124.6875 128 L 66.335938 186.335938 C 63.207031 189.464844 63.207031 194.535156 66.335938 197.664062 C 69.464844 200.792969 74.535156 200.792969 77.664062 197.664062 L 141.664062 133.664062 C 143.167969 132.164062 144.015625 130.125 144.015625 128 C 144.015625 125.875 143.167969 123.835938 141.664062 122.335938 L 77.664062 58.335938 C 76.164062 56.832031 74.125 55.984375 72 55.984375 C 69.875 55.984375 67.835938 56.832031 66.335938 58.335938 M 184 16 C 188.417969 16 192 19.582031 192 24 L 192 232 C 192 236.417969 188.417969 240 184 240 C 179.582031 240 176 236.417969 176 232 L 176 24 C 176 19.582031 179.582031 16 184 16 "/>
</g>
</svg>
