<?xml version="1.0" encoding="UTF-8"?>
<svg xmlns="http://www.w3.org/2000/svg" xmlns:xlink="http://www.w3.org/1999/xlink" width="256px" height="256px" viewBox="0 0 256 256" version="1.1">
<g id="surface1">
<path style=" stroke:none;fill-rule:evenodd;fill:rgb(0%,0%,0%);fill-opacity:1;" d="M 173.664062 114.335938 C 175.167969 115.835938 176.015625 117.875 176.015625 120 C 176.015625 122.125 175.167969 124.164062 173.664062 125.664062 L 125.664062 173.664062 C 124.164062 175.167969 122.125 176.015625 120 176.015625 C 117.875 176.015625 115.835938 175.167969 114.335938 173.664062 L 90.335938 149.664062 C 87.207031 146.535156 87.207031 141.464844 90.335938 138.335938 C 93.464844 135.207031 98.535156 135.207031 101.664062 138.335938 L 120 156.6875 L 162.335938 114.335938 C 163.835938 112.832031 165.875 111.984375 168 111.984375 C 170.125 111.984375 172.164062 112.832031 173.664062 114.335938 "/>
<path style=" stroke:none;fill-rule:nonzero;fill:rgb(0%,0%,0%);fill-opacity:1;" d="M 64 24 L 48 24 C 30.328125 24 16 38.328125 16 56 L 16 224 C 16 241.671875 30.328125 256 48 256 L 208 256 C 225.671875 256 240 241.671875 240 224 L 240 56 C 240 38.328125 225.671875 24 208 24 L 192 24 L 192 40 L 208 40 C 216.835938 40 224 47.164062 224 56 L 224 224 C 224 232.835938 216.835938 240 208 240 L 48 240 C 39.164062 240 32 232.835938 32 224 L 32 56 C 32 47.164062 39.164062 40 48 40 L 64 40 Z M 64 24 "/>
<path style=" stroke:none;fill-rule:nonzero;fill:rgb(0%,0%,0%);fill-opacity:1;" d="M 152 16 C 156.417969 16 160 19.582031 160 24 L 160 40 C 160 44.417969 156.417969 48 152 48 L 104 48 C 99.582031 48 96 44.417969 96 40 L 96 24 C 96 19.582031 99.582031 16 104 16 Z M 104 0 C 90.746094 0 80 10.746094 80 24 L 80 40 C 80 53.253906 90.746094 64 104 64 L 152 64 C 165.253906 64 176 53.253906 176 40 L 176 24 C 176 10.746094 165.253906 0 152 0 Z M 104 0 "/>
</g>
</svg>
