<?xml version="1.0" encoding="UTF-8"?>
<svg xmlns="http://www.w3.org/2000/svg" xmlns:xlink="http://www.w3.org/1999/xlink" width="256px" height="256px" viewBox="0 0 256 256" version="1.1">
<g id="surface1">
<path style=" stroke:none;fill-rule:nonzero;fill:rgb(0%,0%,0%);fill-opacity:1;" d="M 24 240 C 19.582031 240 16 243.582031 16 248 C 16 252.417969 19.582031 256 24 256 L 232 256 C 236.417969 256 240 252.417969 240 248 C 240 243.582031 236.417969 240 232 240 L 208 240 L 208 40 C 208 26.746094 197.253906 16 184 16 L 176 16 L 176 8 C 176 5.683594 174.996094 3.480469 173.246094 1.960938 C 171.496094 0.441406 169.175781 -0.246094 166.878906 0.078125 L 54.878906 16.078125 C 50.933594 16.636719 48 20.015625 48 24 L 48 240 Z M 176 32 L 184 32 C 188.417969 32 192 35.582031 192 40 L 192 240 L 176 240 Z M 136 160 C 131.585938 160 128 152.832031 128 144 C 128 135.167969 131.585938 128 136 128 C 140.414062 128 144 135.167969 144 144 C 144 152.832031 140.414062 160 136 160 "/>
</g>
</svg>
