<?xml version="1.0" encoding="UTF-8"?>
<svg xmlns="http://www.w3.org/2000/svg" xmlns:xlink="http://www.w3.org/1999/xlink" width="256px" height="256px" viewBox="0 0 256 256" version="1.1">
<g id="surface1">
<path style=" stroke:none;fill-rule:nonzero;fill:rgb(0%,0%,0%);fill-opacity:1;" d="M 128 256 C 198.691406 256 256 198.691406 256 128 C 256 57.308594 198.691406 0 128 0 C 57.308594 0 0 57.308594 0 128 C 0 198.691406 57.308594 256 128 256 M 36.960938 83.886719 C 35.761719 79.109375 36.835938 74.042969 39.867188 70.15625 C 42.898438 66.269531 47.550781 64 52.480469 64 L 96 64 C 104.835938 64 112 71.164062 112 80 L 112 81.855469 C 117.238281 80.597656 122.613281 79.976562 128 80 C 133.601562 80 139.039062 80.640625 144 81.855469 L 144 80 C 144 71.164062 151.164062 64 160 64 L 203.519531 64 C 208.449219 64 213.101562 66.269531 216.132812 70.15625 C 219.164062 74.042969 220.238281 79.109375 219.039062 83.886719 L 214.0625 103.761719 C 210.503906 118.003906 197.707031 127.996094 183.023438 128 L 176 128 C 159.324219 128.003906 145.4375 115.199219 144.097656 98.574219 C 138.917969 96.804688 133.472656 95.933594 128 96 C 121.710938 96 116.160156 97.023438 111.902344 98.574219 C 110.5625 115.199219 96.675781 128.003906 80 128 L 72.992188 128 C 58.308594 127.996094 45.511719 118.003906 41.953125 103.761719 Z M 79.503906 156 C 89.507812 173.324219 107.992188 184 128 184 C 148.011719 184.003906 166.507812 173.332031 176.511719 156 C 177.929688 153.503906 180.578125 151.960938 183.449219 151.953125 C 186.320312 151.949219 188.972656 153.480469 190.402344 155.96875 C 191.832031 158.457031 191.820312 161.523438 190.367188 164 C 177.503906 186.28125 153.726562 200.003906 128 200 C 102.273438 200.003906 78.496094 186.28125 65.632812 164 C 63.457031 160.175781 64.777344 155.316406 68.585938 153.117188 C 72.394531 150.917969 77.265625 152.207031 79.488281 156 Z M 79.503906 156 "/>
</g>
</svg>
