<?xml version="1.0" encoding="UTF-8"?>
<svg xmlns="http://www.w3.org/2000/svg" xmlns:xlink="http://www.w3.org/1999/xlink" width="256px" height="256px" viewBox="0 0 256 256" version="1.1">
<g id="surface1">
<path style=" stroke:none;fill-rule:nonzero;fill:rgb(0%,0%,0%);fill-opacity:1;" d="M 121.535156 116.863281 C 125.527344 119.148438 127.992188 123.398438 127.992188 128 C 127.992188 132.601562 125.527344 136.851562 121.535156 139.136719 L 19.726562 198.207031 C 11.40625 203.039062 0 197.519531 0 187.070312 L 0 68.929688 C 0 58.480469 11.40625 52.960938 19.726562 57.792969 Z M 121.535156 116.863281 "/>
<path style=" stroke:none;fill-rule:nonzero;fill:rgb(0%,0%,0%);fill-opacity:1;" d="M 249.535156 116.863281 C 253.527344 119.148438 255.992188 123.398438 255.992188 128 C 255.992188 132.601562 253.527344 136.851562 249.535156 139.136719 L 147.726562 198.207031 C 139.40625 203.039062 128 197.519531 128 187.070312 L 128 68.929688 C 128 58.480469 139.40625 52.960938 147.726562 57.792969 Z M 249.535156 116.863281 "/>
</g>
</svg>
