<?xml version="1.0" encoding="UTF-8"?>
<svg xmlns="http://www.w3.org/2000/svg" xmlns:xlink="http://www.w3.org/1999/xlink" width="256px" height="256px" viewBox="0 0 256 256" version="1.1">
<g id="surface1">
<path style=" stroke:none;fill-rule:nonzero;fill:rgb(0%,0%,0%);fill-opacity:1;" d="M 130.351562 0 C 86.699219 0 42.511719 21.914062 42.511719 63.804688 L 42.511719 170.511719 C 42.511719 217.652344 80.859375 256 128 256 C 175.140625 256 213.484375 217.652344 213.484375 170.511719 L 213.484375 63.804688 C 213.484375 19.964844 170.394531 0 130.351562 0 Z M 197.394531 170.511719 C 197.394531 208.78125 166.265625 239.90625 128 239.90625 C 89.734375 239.90625 58.605469 208.78125 58.605469 170.511719 L 58.605469 120.605469 C 72.972656 124.953125 100.019531 131.53125 131.996094 131.53125 C 152.46875 131.53125 174.949219 128.792969 197.394531 121.070312 Z M 197.394531 103.953125 C 138.753906 126.378906 76.527344 109.496094 58.605469 103.691406 L 58.605469 63.804688 C 58.605469 32.8125 95.570312 16.089844 130.351562 16.089844 C 163.722656 16.089844 197.394531 30.84375 197.394531 63.804688 Z M 137.050781 34.742188 L 137.050781 93.074219 C 137.050781 97.515625 133.445312 101.121094 129.003906 101.121094 C 124.566406 101.121094 120.960938 97.515625 120.960938 93.074219 L 120.960938 34.742188 C 120.960938 30.300781 124.566406 26.695312 129.003906 26.695312 C 133.445312 26.695312 137.050781 30.300781 137.050781 34.742188 Z M 111.238281 28.765625 L 111.238281 103.191406 C 99.835938 105.203125 66.316406 95.816406 66.316406 95.816406 C 57.601562 29.4375 111.238281 28.765625 111.238281 28.765625 Z M 111.238281 28.765625 "/>
</g>
</svg>
