<?xml version="1.0" encoding="UTF-8"?>
<svg xmlns="http://www.w3.org/2000/svg" xmlns:xlink="http://www.w3.org/1999/xlink" width="256px" height="256px" viewBox="0 0 256 256" version="1.1">
<g id="surface1">
<path style=" stroke:none;fill-rule:nonzero;fill:rgb(0%,0%,0%);fill-opacity:1;" d="M 134.464844 116.863281 C 130.472656 119.148438 128.007812 123.398438 128.007812 128 C 128.007812 132.601562 130.472656 136.851562 134.464844 139.136719 L 236.273438 198.207031 C 244.59375 203.039062 256 197.519531 256 187.070312 L 256 68.929688 C 256 58.480469 244.59375 52.960938 236.273438 57.792969 Z M 134.464844 116.863281 "/>
<path style=" stroke:none;fill-rule:nonzero;fill:rgb(0%,0%,0%);fill-opacity:1;" d="M 6.464844 116.863281 C 2.472656 119.148438 0.0078125 123.398438 0.0078125 128 C 0.0078125 132.601562 2.472656 136.851562 6.464844 139.136719 L 108.273438 198.207031 C 116.59375 203.039062 128 197.519531 128 187.070312 L 128 68.929688 C 128 58.480469 116.59375 52.960938 108.273438 57.792969 Z M 6.464844 116.863281 "/>
</g>
</svg>
