<?xml version="1.0" encoding="UTF-8"?>
<svg xmlns="http://www.w3.org/2000/svg" xmlns:xlink="http://www.w3.org/1999/xlink" width="256px" height="256px" viewBox="0 0 256 256" version="1.1">
<g id="surface1">
<path style=" stroke:none;fill-rule:nonzero;fill:rgb(0%,0%,0%);fill-opacity:1;" d="M 128 64 C 132.417969 64 136 67.582031 136 72 L 136 96 C 136 100.417969 132.417969 104 128 104 C 123.582031 104 120 100.417969 120 96 L 120 72 C 120 67.582031 123.582031 64 128 64 M 59.710938 91.710938 C 62.835938 88.589844 67.898438 88.589844 71.023438 91.710938 L 85.664062 106.335938 C 88.792969 109.464844 88.792969 114.535156 85.664062 117.664062 C 82.535156 120.792969 77.464844 120.792969 74.335938 117.664062 L 59.710938 103.023438 C 56.589844 99.898438 56.589844 94.835938 59.710938 91.710938 M 32 160 C 32 155.582031 35.582031 152 40 152 L 65.375 152 C 69.792969 152 73.375 155.582031 73.375 160 C 73.375 164.417969 69.792969 168 65.375 168 L 40 168 C 35.582031 168 32 164.417969 32 160 M 184 160 C 184 155.582031 187.582031 152 192 152 L 216 152 C 220.417969 152 224 155.582031 224 160 C 224 164.417969 220.417969 168 216 168 L 192 168 C 187.582031 168 184 164.417969 184 160 M 196.0625 92.0625 C 193.761719 89.785156 190.101562 89.644531 187.632812 91.742188 L 120.753906 148.960938 C 116.5 152.542969 114.660156 158.230469 116.007812 163.625 C 117.355469 169.015625 121.65625 173.171875 127.089844 174.332031 C 132.527344 175.496094 138.152344 173.460938 141.585938 169.089844 L 196.527344 100.335938 C 198.5 97.855469 198.300781 94.292969 196.0625 92.046875 Z M 196.0625 92.0625 "/>
<path style=" stroke:none;fill-rule:evenodd;fill:rgb(0%,0%,0%);fill-opacity:1;" d="M 0 160 C 0.046875 109.089844 30.257812 63.046875 76.945312 42.738281 C 123.628906 22.429688 177.910156 31.722656 215.1875 66.398438 C 252.460938 101.078125 265.640625 154.546875 248.753906 202.574219 C 241.679688 222.625 219.230469 228.207031 201.839844 222.574219 C 180.945312 215.808594 151.601562 208 128 208 C 104.414062 208 75.039062 215.808594 54.160156 222.574219 C 36.769531 228.207031 14.320312 222.625 7.246094 202.574219 C 2.4375 188.898438 -0.0117188 174.5 0 160 M 128 48 C 91.648438 47.992188 57.554688 65.625 36.554688 95.296875 C 15.550781 124.964844 10.257812 162.984375 22.351562 197.265625 C 25.601562 206.464844 37.121094 211.28125 49.230469 207.34375 C 70.351562 200.527344 101.726562 192 128 192 C 154.273438 192 185.664062 200.511719 206.769531 207.359375 C 218.878906 211.28125 230.398438 206.464844 233.648438 197.265625 C 245.742188 162.984375 240.449219 124.964844 219.445312 95.296875 C 198.445312 65.625 164.351562 47.992188 128 48 "/>
</g>
</svg>
