<?xml version="1.0" encoding="UTF-8"?>
<svg xmlns="http://www.w3.org/2000/svg" xmlns:xlink="http://www.w3.org/1999/xlink" width="256px" height="256px" viewBox="0 0 256 256" version="1.1">
<g id="surface1">
<path style=" stroke:none;fill-rule:nonzero;fill:rgb(0%,0%,0%);fill-opacity:1;" d="M 224 16 C 232.835938 16 240 23.164062 240 32 L 240 224 C 240 232.835938 232.835938 240 224 240 L 32 240 C 23.164062 240 16 232.835938 16 224 L 16 32 C 16 23.164062 23.164062 16 32 16 Z M 32 0 C 14.328125 0 0 14.328125 0 32 L 0 224 C 0 241.671875 14.328125 256 32 256 L 224 256 C 241.671875 256 256 241.671875 256 224 L 256 32 C 256 14.328125 241.671875 0 224 0 Z M 32 0 "/>
</g>
</svg>
