<?xml version="1.0" encoding="UTF-8"?>
<svg xmlns="http://www.w3.org/2000/svg" xmlns:xlink="http://www.w3.org/1999/xlink" width="256px" height="256px" viewBox="0 0 256 256" version="1.1">
<g id="surface1">
<path style=" stroke:none;fill-rule:nonzero;fill:rgb(0%,0%,0%);fill-opacity:1;" d="M 224 16 C 232.835938 16 240 23.164062 240 32 L 240 224 C 240 232.835938 232.835938 240 224 240 L 32 240 C 23.164062 240 16 232.835938 16 224 L 16 32 C 16 23.164062 23.164062 16 32 16 Z M 32 0 C 14.328125 0 0 14.328125 0 32 L 0 224 C 0 241.671875 14.328125 256 32 256 L 224 256 C 241.671875 256 256 241.671875 256 224 L 256 32 C 256 14.328125 241.671875 0 224 0 Z M 32 0 "/>
<path style=" stroke:none;fill-rule:nonzero;fill:rgb(0%,0%,0%);fill-opacity:1;" d="M 74.335938 74.335938 C 75.835938 72.832031 77.875 71.984375 80 71.984375 C 82.125 71.984375 84.164062 72.832031 85.664062 74.335938 L 128 116.6875 L 170.335938 74.335938 C 173.464844 71.207031 178.535156 71.207031 181.664062 74.335938 C 184.792969 77.464844 184.792969 82.535156 181.664062 85.664062 L 139.3125 128 L 181.664062 170.335938 C 184.792969 173.464844 184.792969 178.535156 181.664062 181.664062 C 178.535156 184.792969 173.464844 184.792969 170.335938 181.664062 L 128 139.3125 L 85.664062 181.664062 C 82.535156 184.792969 77.464844 184.792969 74.335938 181.664062 C 71.207031 178.535156 71.207031 173.464844 74.335938 170.335938 L 116.6875 128 L 74.335938 85.664062 C 72.832031 84.164062 71.984375 82.125 71.984375 80 C 71.984375 77.875 72.832031 75.835938 74.335938 74.335938 "/>
</g>
</svg>
